<?xml version="1.0" encoding="UTF-8" standalone="no"?>
<!DOCTYPE svg PUBLIC "-//W3C//DTD SVG 1.1//EN" "http://www.w3.org/Graphics/SVG/1.1/DTD/svg11.dtd">
<svg width="100%" height="100%" viewBox="0 0 46 46" version="1.1" xmlns="http://www.w3.org/2000/svg" xmlns:xlink="http://www.w3.org/1999/xlink" xml:space="preserve" xmlns:serif="http://www.serif.com/" style="fill-rule:evenodd;clip-rule:evenodd;stroke-linejoin:round;stroke-miterlimit:2;">
    <g transform="matrix(0.425073,2.60282e-17,-2.60282e-17,0.425073,-632.073,-241.451)">
        <g transform="matrix(1,0,0,0.991082,-1.5,2.59217)">
            <circle cx="1541.5" cy="624.5" r="53.5" style="fill:white;"/>
        </g>
        <g transform="matrix(1,0,0,1,1,1.5)">
            <path d="M1551.98,671.472C1547.82,672.5 1543.48,673.046 1539,673.046C1534.89,673.046 1530.88,672.585 1527.03,671.712L1525,640.126L1526,639L1531,636L1538,636L1544,640.126L1548,635L1552,642L1548,648L1551.98,671.472Z" style="fill:rgb(113,95,73);"/>
        </g>
        <g transform="matrix(1,0,0,1,-0.5,1.5)">
            <path d="M1528,612L1528,616L1527,620L1526,622L1527,627L1529,629L1530,625L1530,621L1538,621L1538,624L1538.5,632L1538.5,635L1543,632L1547,628L1549,624L1548.56,617L1549,615L1552,610L1555,607L1556,601L1555,599L1554,594L1554,588L1549,585L1532,585L1529,588L1527,591.5L1527,597L1526,599L1524,599L1522,600L1522,603L1523,606L1526,608L1527,609L1528,612Z" style="fill:rgb(178,126,135);fill-opacity:0.79;"/>
        </g>
        <g transform="matrix(1,0,0,1,0,1.5)">
            <path d="M1522,599L1522,582L1526,579L1528,575L1531,573L1535,571L1541,571L1548,572L1552,574L1555.5,578L1558,582L1558,593L1557,596L1555.5,601.01L1554.44,599.328L1553.09,595L1553,591L1552.09,587.172C1552.09,587.172 1549.36,586.045 1549,586C1548.64,585.955 1543.73,586.368 1543,586C1542.28,585.632 1532,586 1532,586L1528,590L1527,592L1527,596C1527,596 1525.77,598.387 1526,599C1526.23,599.613 1521.5,599.979 1521.5,599.979" style="fill:rgb(186,105,51);"/>
        </g>
        <g transform="matrix(1,0,0,1,0,1.5)">
            <path d="M1525,620L1527,619L1527,626L1529,629L1530,633L1536,635L1538.5,634L1544,629L1548,625L1548,617L1551,620C1551,620 1552.45,625.145 1552,625C1551.55,624.855 1552,633 1552,633L1550.34,637L1545,641L1540,638L1538,636L1535,639L1531,636L1528,639.638C1528,639.638 1526.63,643.058 1526,643.343C1525.37,643.627 1523,640 1523,640L1523,628L1524,623L1525,620Z" style="fill:rgb(157,149,167);"/>
        </g>
        <g transform="matrix(1,0,0,1,0,1.5)">
            <path d="M1533.95,672.71C1532.96,672.599 1531.98,672.462 1531.01,672.299L1531,653L1532,640L1532,639L1530,638L1529,626L1529,621L1538,621L1538,637L1536,639L1535,639L1534,640L1533.95,672.71Z" style="fill:url(#_Linear1);"/>
        </g>
        <g transform="matrix(1,0,0,1,0,1.5)">
            <path d="M1548.74,672.34L1549,663L1548,653L1547,649L1548,647L1551,647L1553,650L1557,657L1561,661L1565,660L1567,657L1567,646L1566,640.126L1564,635L1563,631L1559,627L1557.4,628.327L1558,631L1558,633L1554,631L1551.55,629.883L1551.68,624.032L1548,617L1556,622L1569,625L1580,629.063L1590.75,636.823C1584.55,655.209 1568.46,669.123 1548.74,672.34Z" style="fill:rgb(43,44,36);"/>
        </g>
        <g transform="matrix(1,0,0,1,0,1.5)">
            <path d="M1549.15,636.084C1549.48,636.953 1550.51,639.181 1551,640C1551.25,640.423 1551.92,640.537 1552.09,641C1552.27,641.5 1552.43,642.5 1552.09,643C1551.74,643.5 1550.49,643.835 1550,644C1549.73,644.092 1549.26,643.732 1549.13,643.99C1548.97,644.323 1549.02,645.415 1549,646C1548.99,646.316 1549.05,646.73 1549.04,647.053C1549.04,647.24 1549.04,647.396 1549.17,647.523C1549.69,648.023 1551.37,648.183 1552.09,649C1552.89,649.913 1553.19,651.765 1554,653C1554.75,654.142 1555.99,655.858 1557.03,657.11C1557.36,657.504 1557.76,657.681 1558,658C1558.72,658.961 1559.5,660.5 1560,661C1560.24,661.236 1560.67,661 1561,661C1561.67,661 1563.05,661.316 1564,661C1565,660.667 1566.33,659.667 1567,659C1567.53,658.473 1567.85,657.731 1568,657C1568.17,656.167 1568.17,654.833 1568,654C1567.85,653.269 1567.08,652.741 1567,652C1566.96,651.605 1567.12,651 1567.13,650.39C1567.15,648.683 1567.12,646.458 1567,645C1566.86,643.347 1566.48,641.715 1566,640.126C1565.5,638.46 1564.5,636.521 1564,635C1563.57,633.694 1563.62,632.229 1563,631C1562.33,629.667 1560.83,627.667 1560,627C1559.48,626.584 1558.5,626.667 1558,627C1557.5,627.333 1557.02,628.255 1557,629C1556.98,629.949 1558.05,632.36 1557.89,632.694C1557.72,633.027 1556.74,631.408 1556,631C1555.19,630.551 1553.83,630.167 1553,630C1552.35,629.869 1551.5,629.667 1551,630C1550.5,630.333 1550.29,631.499 1550,632C1549.79,632.364 1549.38,632.612 1549.24,633.009C1549.07,633.474 1549.01,634.276 1549,634.788C1548.99,635.223 1549,635.678 1549.15,636.084Z" style="fill:url(#_Linear2);"/>
        </g>
        <g transform="matrix(1,0,0,1,0,1.5)">
            <path d="M1528.4,671.794C1511.94,668.18 1498.31,657.041 1491.4,642.211L1499,634L1510,629L1525,620L1525,622L1523,631L1523,640L1526,641L1527,652L1529,669L1528.4,671.794Z" style="fill:rgb(38,34,10);"/>
        </g>
    </g>
    <defs>
        <linearGradient id="_Linear1" x1="0" y1="0" x2="1" y2="0" gradientUnits="userSpaceOnUse" gradientTransform="matrix(9,0,0,53,1529,647.5)"><stop offset="0" style="stop-color:white;stop-opacity:1"/><stop offset="0.56" style="stop-color:rgb(158,148,142);stop-opacity:1"/><stop offset="1" style="stop-color:rgb(116,102,93);stop-opacity:1"/></linearGradient>
        <linearGradient id="_Linear2" x1="0" y1="0" x2="1" y2="0" gradientUnits="userSpaceOnUse" gradientTransform="matrix(19,0,0,34,1549,644)"><stop offset="0" style="stop-color:white;stop-opacity:1"/><stop offset="0" style="stop-color:rgb(222,189,183);stop-opacity:1"/><stop offset="0.57" style="stop-color:rgb(194,134,124);stop-opacity:1"/><stop offset="1" style="stop-color:rgb(182,110,97);stop-opacity:1"/></linearGradient>
    </defs>
</svg>
